<svg xmlns="http://www.w3.org/2000/svg" viewBox="0 0 64 64" role="img" aria-labelledby="title">
  
  <defs>
    <linearGradient id="mcg" x1="8" y1="8" x2="56" y2="56" gradientUnits="userSpaceOnUse">
      <stop stop-color="#5B5CF6"/>
      <stop offset=".5" stop-color="#19B5D8"/>
      <stop offset="1" stop-color="#9B5CFF"/>
    </linearGradient>
    <radialGradient id="mcr" cx="0" cy="0" r="1" gradientTransform="translate(31 29) rotate(45) scale(35)" gradientUnits="userSpaceOnUse">
      <stop stop-color="#FFFFFF" stop-opacity=".24"/>
      <stop offset="1" stop-color="#FFFFFF" stop-opacity="0"/>
    </radialGradient>
  </defs>
  <rect x="4" y="4" width="56" height="56" rx="18" fill="#0C1020"/>
  <path d="M18 42V24.5c0-3.04 2.46-5.5 5.5-5.5 2.1 0 4.02 1.2 4.94 3.09L32 29.4l3.56-7.31A5.5 5.5 0 0 1 40.5 19c3.04 0 5.5 2.46 5.5 5.5V42h-7V28.6L34.8 37h-5.6L25 28.6V42h-7Z" fill="url(#mcg)"/>
  <circle cx="47" cy="17" r="5" fill="#34D399"/>
  <circle cx="47" cy="17" r="2" fill="#D1FAE5"/>
  <rect x="4.5" y="4.5" width="55" height="55" rx="17.5" fill="url(#mcr)" stroke="#FFFFFF" stroke-opacity=".12"/>
</svg>